<svg xmlns="http://www.w3.org/2000/svg" width="23" height="35" viewBox="0 0 23 35"><title>Enjoy</title><g fill="none"><g fill="#459149"><path d="M9.1 9.5C9.1 11 7.9 12.3 6.7 12.6 6.4 12.7 6.2 13 6.2 13.4L6.8 32.7C6.8 32.9 6.7 33.1 6.6 33.3 6.5 33.4 6.3 33.5 6.1 33.5L4.6 33.5C4.4 33.5 4.2 33.4 4.1 33.3 3.9 33.1 3.8 32.9 3.9 32.7L4.5 13.1C4.5 12.8 4.3 12.5 4 12.4 2.5 11.9 1.5 10.7 1.5 9.5L1.5 8.7C1.5 8 1.7 5.2 2.1 3L3 3 3 7.6C3 8 3.4 8.4 3.8 8.4 4.2 8.4 4.6 8 4.6 7.6L4.6 3 6.1 3 6.1 7.6C6.1 8 6.4 8.4 6.8 8.4 7.3 8.4 7.6 8 7.6 7.6L7.6 3 8.5 3C8.9 5.2 9.1 8 9.1 8.7L9.1 9.5ZM9.1 1.5L1.5 1.5C1.2 1.5 0.9 1.8 0.8 2.1 0.2 4.5 0 7.9 0 8.7L0 9.5C0 11.2 1.1 12.8 3 13.6L2.3 32.7C2.3 33.3 2.5 33.9 3 34.3 3.4 34.8 3.9 35 4.6 35L6.1 35C6.7 35 7.3 34.8 7.7 34.3 8.1 33.9 8.3 33.3 8.3 32.7L7.7 13.8C9.2 13.1 10.7 11.4 10.7 9.5L10.7 8.7C10.7 7.9 10.4 4.5 9.9 2.1 9.8 1.8 9.5 1.5 9.1 1.5L9.1 1.5ZM21.3 32.8C21.3 33.2 21 33.5 20.6 33.5L20.6 34.2 20.5 33.5 20.4 33.5C20 33.5 19.7 33.1 19.7 32.7L19.7 15.7C19.7 15.4 19.5 15.2 19.2 15.1 18.3 14.6 17.7 14.3 17.5 14.2 17.4 14.2 17.4 14.1 17.4 14.1L17.4 14.1C17 13.9 16.7 13.3 16.7 12.8L18.3 3.9C18.5 2.6 19.8 1.5 21.1 1.5L21.3 1.5 21.3 32.8ZM21.3 0L21.1 0C19.1 0 17.2 1.6 16.8 3.6L15.2 12.5C15.1 13.6 15.6 14.7 16.5 15.3L16.5 15.4 16.7 15.5C16.8 15.5 16.8 15.5 16.9 15.6 17.2 15.7 17.6 15.9 18.1 16.2L18.1 32.7C18.1 33.9 19.2 35 20.4 35L20.5 35 20.6 35C21.8 35 22.8 34 22.8 32.8L22.8 1.5C22.8 0.7 22.1 0 21.3 0L21.3 0Z"/></g></g></svg>
