<svg xmlns="http://www.w3.org/2000/svg" width="27" height="35" viewBox="0 0 27 35"><title>Order</title><g fill="none"><g fill="#459149"><path d="M10.4 12.3L10.4 9.1C10.4 8.5 10.9 8 11.5 8 12.2 8 12.7 8.5 12.7 9.1L12.7 12.7 12.7 14.1 12.7 14.1 12.7 22C12.7 22.5 13.1 22.8 13.5 22.8 14 22.8 14.3 22.5 14.3 22L14.3 15.7C14.7 15.7 15.1 15.6 15.4 15.3 15.5 15.2 15.7 15.1 15.9 15.1 16.3 15.1 16.7 15.4 16.7 15.9 16.7 16 16.7 16.1 16.8 16.2 16.7 16.3 16.7 16.4 16.7 16.5L16.7 22.8C16.7 23.3 17.1 23.6 17.5 23.6 17.9 23.6 18.3 23.3 18.3 22.8L18.3 17.3C18.7 17.3 19.1 17.2 19.4 16.9 19.5 16.8 19.6 16.7 19.9 16.7 20.3 16.7 20.7 17.1 20.7 17.5L20.7 18.9 20.7 18.9 20.7 23.6C20.7 24.1 21 24.4 21.5 24.4 21.9 24.4 22.3 24.1 22.3 23.6L22.3 20.5C22.7 20.5 23 20.4 23.3 20.1 23.4 20 23.6 19.9 23.9 19.9 24.3 19.9 24.7 20.2 24.7 20.7L24.7 26.3C24.7 30.2 21.4 33.4 17.5 33.4 14.9 33.4 12.5 32 11.2 29.7 11.2 29.7 11.2 29.6 11.1 29.5L11.1 29.5 4.2 19.5C3.9 19.1 3.9 18.3 4.3 17.9 4.4 17.8 4.6 17.7 4.8 17.7 5.1 17.7 5.3 17.8 5.4 17.9L7.6 20.1C7.9 20.4 8.3 20.6 8.8 20.6 9 20.6 9.2 20.6 9.4 20.5 10 20.2 10.4 19.7 10.4 19L10.4 12.3ZM7.1 11.1L7.1 11.1 7.1 11.1ZM8.8 11.1L8.8 19 6.5 16.8C6.1 16.3 5.5 16.1 4.8 16.1 4.2 16.1 3.6 16.3 3.2 16.8 2.3 17.7 2.1 19.3 2.9 20.4L9.8 30.4C9.8 30.4 9.8 30.5 9.9 30.5 11.3 33.2 14.2 35 17.5 35 22.3 35 26.2 31.1 26.2 26.3L26.2 26.3 26.2 26.3 26.2 20.7C26.2 19.4 25.2 18.3 23.9 18.3 23.3 18.3 22.7 18.5 22.3 18.9L22.3 18.9 22.3 17.5C22.3 16.2 21.2 15.1 19.9 15.1 19.3 15.1 18.7 15.3 18.3 15.7 18.2 14.5 17.2 13.5 15.9 13.5 15.3 13.5 14.7 13.8 14.3 14.1L14.3 14.1 14.3 11.1 8.8 11.1ZM16 11.1L16 11.1 16 11.1ZM14.3 11.1L8.8 11.1 8.8 9.1C8.8 7.6 10 6.4 11.5 6.4 13.1 6.4 14.3 7.6 14.3 9.1L14.3 11.1ZM5.6 9.5L7.1 9.5 7.1 11.1 5.6 11.1C2.5 11.1 0 8.6 0 5.6 0 2.5 2.5 0 5.6 0L19.9 0C23 0 25.5 2.5 25.5 5.6 25.5 8.6 23 11.1 19.9 11.1L16 11.1 16 9.5 19.9 9.5C22.1 9.5 23.9 7.8 23.9 5.6 23.9 3.4 22.1 1.6 19.9 1.6L5.6 1.6C3.4 1.6 1.6 3.4 1.6 5.6 1.6 7.8 3.4 9.5 5.6 9.5Z"/></g></g></svg>
