<svg xmlns="http://www.w3.org/2000/svg" width="36" height="35" viewBox="0 0 36 35"><title>Sit back</title><g fill="none"><g fill="#459149"><path d="M20.3 8C19.9 8.1 19.5 8.2 19.1 8.3 19.4 7.4 19.9 6.5 20.5 5.6 21.6 4.2 23.1 3 25.2 2.3 28.1 1.3 30.5 1.7 32.4 3.1 32.7 3.2 32.9 3.4 33.1 3.6L20.3 8ZM26.8 11.5C27.5 12.1 28.1 12.7 28.6 13.3 29.7 14.8 30 16.3 30 17.6L23.9 12.8 20.2 9.9 20.8 9.7C21.2 9.7 21.7 9.6 22.2 9.7 23.7 9.7 25.2 10.3 26.8 11.5L26.8 11.5ZM21.3 13.8C21.1 13.9 20.9 14 20.6 14 20.2 14 19.8 13.8 19.5 13.5 19.3 13.2 19.1 12.9 19.1 12.5 19.1 12.2 19.2 12 19.3 11.8 19.4 11.7 19.4 11.7 19.4 11.6L21.3 13 21.8 13.5C21.7 13.6 21.5 13.7 21.3 13.8L21.3 13.8ZM20.2 33.2L16.3 33.2C15.8 33.2 15.6 32.9 15.6 32.5L16.2 24.5 17.8 24.5C18.3 24.5 18.7 24.1 18.7 23.6 18.7 23.1 18.3 22.7 17.8 22.7L16.3 22.7 17.1 12.2C17.1 11.8 17.3 11.6 17.6 11.4 17.4 11.7 17.4 12.1 17.4 12.5 17.4 14 18.3 15.2 19.7 15.6L20.9 32.5C20.9 32.9 20.6 33.2 20.2 33.2L20.2 33.2ZM5.6 17.6C5.6 16.2 6 13.7 8.8 11.5 10.4 10.3 12.1 9.6 13.8 9.6 14.2 9.6 14.5 9.7 14.8 9.7L15.4 9.9 5.6 17.6ZM2.5 3.6C2.7 3.4 2.9 3.2 3.2 3.1 5.1 1.7 7.5 1.3 10.4 2.3 12.5 3 14 4.2 15.1 5.6 15.7 6.5 16.2 7.4 16.5 8.3 16.1 8.2 15.7 8.1 15.3 8L2.5 3.6ZM35.2 3.2C35.2 3.2 31.4-1.7 24.6 0.6 20.6 2 18.7 4.8 17.8 6.8 16.9 4.8 15 2 11 0.6 4.2-1.7 0.4 3.2 0.4 3.2 -0.3 3.8-0.1 4.6 0.8 4.9L10.9 8.4C9.9 8.7 8.8 9.3 7.7 10.1 2.6 14.1 4 19.2 4 19.2 4.1 20.2 4.8 20.5 5.6 19.9L15.3 12.3 13.8 32.4C13.7 33.8 14.8 35 16.3 35L20.2 35C21.7 35 22.8 33.8 22.7 32.4L21.5 15.7C22.1 15.5 22.7 15.1 23.2 14.5L30 19.9C30.8 20.5 31.5 20.2 31.6 19.2 31.6 19.2 33 14.1 27.9 10.1 26.8 9.3 25.7 8.7 24.7 8.4L34.8 4.9C35.7 4.6 35.9 3.8 35.2 3.2L35.2 3.2Z"/></g></g></svg>
